<svg xmlns="http://www.w3.org/2000/svg" width="1200" height="800" viewBox="0 0 1200 800"><g id="_1-BD-get_started" data-name="1-BD-get started"><rect x="790.36" y="235.32" width="383.56" height="232.07" fill="#e6e7e8"/><rect x="801.68" y="270.7" width="360.51" height="183.73" fill="#b2add6"/><rect x="808.4" y="297.11" width="107.37" height="30.59" fill="#d5d5e9" stroke="#b2add6" stroke-miterlimit="8" stroke-width="1.61"/><rect x="927.43" y="297.11" width="107.37" height="30.59" fill="#d5d5e9" stroke="#b2add6" stroke-miterlimit="8" stroke-width="1.61"/><rect x="405.08" y="235.32" width="372.65" height="232.07" fill="#e6e7e8"/><rect x="417.41" y="274.19" width="348.59" height="180.24" fill="none"/><text transform="translate(564.6 260.18)" font-size="14" font-family="Arial-BoldMT, Arial" font-weight="700">Memory</text><rect x="789.93" y="21.79" width="186.48" height="198.29" fill="#fcc059"/><rect x="797.73" y="84.48" width="164.11" height="80.12" fill="#fbd89d" stroke="#fcc059" stroke-miterlimit="8" stroke-width="1.19"/><rect x="18.3" y="21.79" width="374.24" height="198.29" fill="#c4d12e"/><rect x="26.73" y="53.74" width="164.11" height="152.95" fill="#e0e596" stroke="#c4d12e" stroke-miterlimit="8" stroke-width="1.61"/><text transform="translate(95.01 45.71)" font-size="14" font-family="Arial-BoldMT, Arial" font-weight="700">Real-Time Unit 0 (4 x Cortex-R52)</text><rect x="18.95" y="235.32" width="372.82" height="232.07" fill="#e6e7e8"/><rect x="31.45" y="274.19" width="348.59" height="180.24" fill="#b2add6"/><rect x="33.09" y="61.2" width="164.11" height="152.95" fill="#e0e596" stroke="#c4d12e" stroke-miterlimit="8" stroke-width="1.61"/><rect x="40.39" y="68.8" width="149.29" height="29.36" fill="#c4d12e"/><text transform="translate(57.68 89.45)" font-size="14" font-family="ArialMT, Arial">Arm</text><text transform="translate(83.34 84.79) scale(0.58)" font-size="14" font-family="ArialMT, Arial">®</text><text transform="translate(89.36 89.45)" font-size="14" font-family="ArialMT, Arial"><tspan xml:space="preserve"> Cortex</tspan></text><text transform="translate(134.48 84.79) scale(0.58)" font-size="14" font-family="ArialMT, Arial">®</text><text transform="translate(140.5 89.45)" font-size="14" font-family="ArialMT, Arial">-R52</text><rect x="45.06" y="327.42" width="321.31" height="47.16" fill="#d5d5e9"/><text transform="translate(164.11 356.99)" font-size="14" font-family="ArialMT, Arial">ENET Switch</text><rect x="45.06" y="381.24" width="157.11" height="47.16" fill="#d5d5e9"/><rect x="40.39" y="103.07" width="72.01" height="29.36" fill="#c4d12e"/><text transform="translate(44.76 123.72)" font-size="14" font-family="ArialMT, Arial">32 KB L1I</text><rect x="40.39" y="176.62" width="149.29" height="29.36" fill="#c4d12e"/><text transform="translate(49.29 197.27)" font-size="14" font-family="ArialMT, Arial">3x TCM 64/16/16 KB</text><rect x="418.11" y="274.19" width="346.87" height="21.2" fill="#ffeed0"/><rect x="118.85" y="103.07" width="70.83" height="29.36" fill="#c4d12e"/><text transform="translate(119.63 123.72)" font-size="14" font-family="ArialMT, Arial">16 KB L1D</text><rect x="212.75" y="53.74" width="164.11" height="152.95" fill="#e0e596" stroke="#c4d12e" stroke-miterlimit="8" stroke-width="1.61"/><rect x="219.11" y="61.2" width="164.11" height="152.95" fill="#e0e596" stroke="#c4d12e" stroke-miterlimit="8" stroke-width="1.61"/><rect x="226.41" y="68.8" width="149.29" height="29.36" fill="#c4d12e"/><text transform="translate(264.49 89.45)" font-size="14" font-family="ArialMT, Arial">Cortex-R52</text><rect x="226.41" y="103.07" width="72.01" height="29.36" fill="#c4d12e"/><text transform="translate(230.79 123.72)" font-size="14" font-family="ArialMT, Arial">32 KB L1I</text><rect x="226.41" y="176.62" width="149.29" height="29.36" fill="#c4d12e"/><text transform="translate(235.31 197.27)" font-size="14" font-family="ArialMT, Arial">3x TCM 64/16/16 KB</text><rect x="304.87" y="103.07" width="70.83" height="29.36" fill="#c4d12e"/><text transform="translate(305.65 123.72)" font-size="14" font-family="ArialMT, Arial">16 KB L1D</text><rect x="404.41" y="21.79" width="374.24" height="198.29" fill="#c4d12e"/><rect x="412.83" y="53.74" width="164.11" height="152.95" fill="#e0e596" stroke="#c4d12e" stroke-miterlimit="8" stroke-width="1.61"/><text transform="translate(481.11 45.71)" font-size="14" font-family="Arial-BoldMT, Arial" font-weight="700">Real-Time Unit 1 (4 x Cortex-R52)</text><rect x="419.19" y="61.2" width="164.11" height="152.95" fill="#e0e596" stroke="#c4d12e" stroke-miterlimit="8" stroke-width="1.61"/><rect x="426.5" y="68.8" width="149.29" height="29.36" fill="#c4d12e"/><text transform="translate(464.58 89.45)" font-size="14" font-family="ArialMT, Arial">Cortex-R52</text><rect x="426.5" y="103.07" width="72.01" height="29.36" fill="#c4d12e"/><text transform="translate(432.36 123.72)" font-size="14" font-family="ArialMT, Arial">32 KB L1I</text><rect x="426.5" y="176.62" width="149.29" height="29.36" fill="#c4d12e"/><text transform="translate(435.39 197.27)" font-size="14" font-family="ArialMT, Arial">3x TCM 64/16/16 KB</text><rect x="504.96" y="103.07" width="70.83" height="29.36" fill="#c4d12e"/><text transform="translate(505.74 123.72)" font-size="14" font-family="ArialMT, Arial">16 KB L1D</text><rect x="598.85" y="53.74" width="164.11" height="152.95" fill="#e0e596" stroke="#c4d12e" stroke-miterlimit="8" stroke-width="1.61"/><rect x="605.21" y="61.2" width="164.11" height="152.95" fill="#e0e596" stroke="#c4d12e" stroke-miterlimit="8" stroke-width="1.61"/><rect x="612.52" y="68.8" width="149.29" height="29.36" fill="#c4d12e"/><text transform="translate(650.6 89.45)" font-size="14" font-family="ArialMT, Arial">Cortex-R52</text><rect x="612.52" y="103.07" width="72.01" height="29.36" fill="#c4d12e"/><text transform="translate(618.38 123.72)" font-size="14" font-family="ArialMT, Arial">32 KB L1I</text><rect x="612.52" y="176.62" width="149.29" height="29.36" fill="#c4d12e"/><text transform="translate(621.41 197.27)" font-size="14" font-family="ArialMT, Arial">3x TCM 64/16/16 KB</text><rect x="690.98" y="103.07" width="70.83" height="29.36" fill="#c4d12e"/><text transform="translate(691.76 123.72)" font-size="14" font-family="ArialMT, Arial">16 KB L1D</text><text transform="translate(827.76 47.46)" font-size="14" font-family="Arial-BoldMT, Arial" font-weight="700">System Manager<tspan x="12.85" y="18">(Cortex-M33)</tspan></text><rect x="804.71" y="92.67" width="164.11" height="80.12" fill="#fbd89d" stroke="#fcc059" stroke-miterlimit="8" stroke-width="1.19"/><rect x="812.02" y="100.27" width="149.29" height="29.36" fill="#fcc059"/><text transform="translate(849.32 120.92)" font-size="14" font-family="ArialMT, Arial">Cortex-M33</text><rect x="812.02" y="135.59" width="149.29" height="29.36" fill="#fcc059"/><text transform="translate(836.47 156.25)" font-size="14" font-family="ArialMT, Arial">8 KB L1 I and D</text><text transform="translate(133.13 261.93)" font-size="14" font-family="Arial-BoldMT, Arial" font-weight="700">Ethernet Acceleration</text><text transform="translate(108.24 306.98)" font-size="14" font-family="Arial-BoldMT, Arial" font-weight="700">Ethernet Subsystem (NETC3)</text><rect x="208.23" y="381.24" width="158.14" height="47.16" fill="#d5d5e9"/><text transform="translate(60.81 402.07)" font-size="14" font-family="ArialMT, Arial">10 Mb/100 Mb/1 Gb<tspan x="46.31" y="18">MAC</tspan></text><text transform="translate(225.95 402.07)" font-size="14" font-family="ArialMT, Arial">10 Mb/100 Mb/1 Gb<tspan x="46.31" y="18">MAC</tspan></text><text transform="translate(498.39 290.73)" font-size="14" font-family="ArialMT, Arial">19 MB Total SRAM with ECC </text><rect x="418.11" y="300.76" width="346.87" height="21.2" fill="#ffeed0"/><text transform="translate(490.99 317.3)" font-size="14" font-family="ArialMT, Arial">0 MB/16 MB/32 MB/64 MB NVM</text><rect x="418.11" y="353.9" width="346.87" height="21.2" fill="#ffeed0"/><text transform="translate(458.91 370.44)" font-size="14" font-family="ArialMT, Arial">LPDDR4 (Flash or DRAM) with ECC + IEE</text><rect x="418.11" y="380.47" width="346.87" height="21.2" fill="#ffeed0"/><text transform="translate(484.58 397.01)" font-size="14" font-family="ArialMT, Arial">QuadSPI NOR Flash I/F + OTFAD</text><rect x="418.11" y="407.04" width="346.87" height="21.2" fill="#ffeed0"/><text transform="translate(498.01 423.58)" font-size="14" font-family="ArialMT, Arial">eMMC/SDHC NAND Flash I/F</text><rect x="418.11" y="433.61" width="346.87" height="21.2" fill="#ffeed0"/><text transform="translate(491.72 450.15)" font-size="14" font-family="ArialMT, Arial">HyperRAM</text><text transform="translate(560.17 445.49) scale(0.58)" font-size="14" font-family="ArialMT, Arial">TM</text><text transform="translate(571.96 450.15)" font-size="14" font-family="ArialMT, Arial"><tspan xml:space="preserve"> I/F with inline ECC</tspan></text><text transform="translate(866.94 261.93)" font-size="14" font-family="Arial-BoldMT, Arial" font-weight="700">Auto Communication Acceleration</text><text transform="translate(949.39 291.25)" font-size="14" font-family="Arial-BoldMT, Arial" font-weight="700">FlexLLCE</text><rect x="808.11" y="340.37" width="346.87" height="30.59" fill="#d5d5e9"/><text transform="translate(928.84 362.48)" font-size="14" font-family="ArialMT, Arial">24x FlexCAN FD</text><rect x="808.11" y="378.7" width="346.87" height="30.59" fill="#d5d5e9"/><text transform="translate(931.55 400.81)" font-size="14" font-family="ArialMT, Arial">Security Offload</text><rect x="808.11" y="417.04" width="346.87" height="30.59" fill="#d5d5e9"/><text transform="translate(937.39 439.15)" font-size="14" font-family="ArialMT, Arial">Timestamping</text><rect x="812.55" y="302.03" width="107.37" height="30.59" fill="#d5d5e9" stroke="#b2add6" stroke-miterlimit="8" stroke-width="1.6"/><text transform="translate(828.8 324.14)" font-size="14" font-family="ArialMT, Arial">Cortex-M33</text><rect x="931.58" y="302.03" width="107.37" height="30.59" fill="#d5d5e9" stroke="#b2add6" stroke-miterlimit="8" stroke-width="1.6"/><text transform="translate(947.83 324.14)" font-size="14" font-family="ArialMT, Arial">Cortex-M33</text><rect x="1047.63" y="302.03" width="107.37" height="30.59" fill="#d5d5e9" stroke="#d5d5e9" stroke-miterlimit="10" stroke-width="1.61"/><text transform="translate(1055.31 324.14)" font-size="14" font-family="ArialMT, Arial">768 KB SRAM</text><rect x="790.36" y="484.15" width="383.56" height="294.98" fill="#e6e7e8"/><rect x="405.08" y="484.15" width="372.65" height="295.31" fill="#e6e7e8"/><rect x="417.41" y="523.83" width="348.59" height="168.87" fill="#d69b9f"/><text transform="translate(563.82 510.77)" font-size="14" font-family="Arial-BoldMT, Arial" font-weight="700">Security</text><rect x="18.95" y="484.15" width="372.82" height="295.31" fill="#e6e7e8"/><rect x="31.45" y="523.83" width="348.59" height="239.1" fill="none"/><text transform="translate(100.85 510.77)" font-size="14" font-family="Arial-BoldMT, Arial" font-weight="700">System Control Unit and Safety</text><text transform="translate(483.6 547.52)" font-size="14" font-family="Arial-BoldMT, Arial" font-weight="700">Hardware Security Engine (HSE)</text><rect x="428.55" y="559.08" width="160.68" height="25.81" fill="#eeb9ca"/><text transform="translate(475.22 577.46)" font-size="14" font-family="ArialMT, Arial">Cortex-M7</text><rect x="428.55" y="591.42" width="326" height="25.81" fill="#eeb9ca"/><text transform="translate(493.74 609.81)" font-size="14" font-family="ArialMT, Arial">Symmetric/Asymmetric Cryptos</text><rect x="428.55" y="623.77" width="326" height="25.81" fill="#eeb9ca"/><text transform="translate(575.8 642.15)" font-size="14" font-family="ArialMT, Arial">RNG</text><rect x="428.55" y="656.11" width="326" height="25.81" fill="#eeb9ca"/><text transform="translate(531.83 674.49)" font-size="14" font-family="ArialMT, Arial">Physical Protection</text><rect x="428.55" y="700.07" width="326" height="28.13" fill="#eeb9ca"/><text transform="translate(564.12 720.26)" font-size="14" font-family="ArialMT, Arial">Lifecycle</text><rect x="428.55" y="735.31" width="326" height="28.13" fill="#eeb9ca"/><text transform="translate(565.29 755.5)" font-size="14" font-family="ArialMT, Arial">E-Fuses</text><rect x="31.73" y="523.83" width="348.59" height="239.1" fill="none"/><rect x="32.43" y="523.83" width="346.87" height="28.13" fill="#aad9bc"/><text transform="translate(112.76 544.02)" font-size="14" font-family="ArialMT, Arial">Power Control, Clocks, Reset</text><rect x="32.43" y="559.08" width="346.87" height="28.13" fill="#aad9bc"/><text transform="translate(169.95 579.27)" font-size="14" font-family="ArialMT, Arial">BootROMs</text><rect x="32.43" y="594.33" width="346.87" height="28.13" fill="#aad9bc"/><text transform="translate(127.16 614.52)" font-size="14" font-family="ArialMT, Arial">PMIC interface (SPI/I3C)</text><rect x="32.43" y="629.57" width="346.87" height="28.13" fill="#aad9bc"/><text transform="translate(84.75 649.76)" font-size="14" font-family="ArialMT, Arial">Domain Resource Partitioning (XRDC)</text><rect x="32.43" y="664.82" width="346.87" height="28.13" fill="#aad9bc"/><text transform="translate(180.07 685.01)" font-size="14" font-family="ArialMT, Arial">VFCCU</text><rect x="32.43" y="700.07" width="346.87" height="28.13" fill="#aad9bc"/><text transform="translate(159.45 720.26)" font-size="14" font-family="ArialMT, Arial">MBIST, LBIST</text><rect x="32.43" y="735.31" width="346.87" height="28.13" fill="#aad9bc"/><text transform="translate(183.55 753.76)" font-size="14" font-family="ArialMT, Arial">Debug</text><rect x="807.1" y="523.03" width="348.59" height="180.24" fill="none"/><rect x="807.38" y="523.03" width="348.59" height="180.24" fill="none"/><rect x="808.08" y="523.03" width="346.87" height="21.2" fill="#49c2c4"/><text transform="translate(949.42 539.56)" font-size="14" font-family="ArialMT, Arial">2x Zipwire</text><rect x="808.08" y="549.6" width="346.87" height="21.2" fill="#49c2c4"/><text transform="translate(943.3 566.13)" font-size="14" font-family="ArialMT, Arial">2x FlexRay</text><text transform="translate(1013.32 561.47) scale(0.58)" font-size="14" font-family="ArialMT, Arial">®</text><rect x="984.76" y="576.17" width="170.18" height="21.2" fill="#49c2c4"/><rect x="984.76" y="602.74" width="170.18" height="21.2" fill="#49c2c4"/><rect x="984.76" y="629.31" width="170.18" height="21.2" fill="#49c2c4"/><rect x="808.08" y="655.88" width="346.87" height="52.68" fill="#49c2c4"/><text transform="translate(922.58 679.41)" font-size="14" font-family="ArialMT, Arial">1x CTU, 2x eMIOS<tspan x="-36.96" y="18">4 clusters x GTM 4.1 (optional)</tspan></text><rect x="808.08" y="715.55" width="346.87" height="51.95" fill="#49c2c4"/><text transform="translate(829.61 747.68)" font-size="14" font-family="ArialMT, Arial">2x 1.8 V 12-bit SAR ADC (8-ch total), SINC Filter</text><text transform="translate(902.71 510.77)" font-size="14" font-family="Arial-BoldMT, Arial" font-weight="700">Connectivity/Interfaces </text><rect x="808.08" y="576.17" width="170.72" height="21.2" fill="#49c2c4"/><rect x="808.08" y="602.74" width="170.72" height="21.2" fill="#49c2c4"/><rect x="808.08" y="629.31" width="170.72" height="21.2" fill="#49c2c4"/><text transform="translate(854.89 645.85)" font-size="14" font-family="ArialMT, Arial">16-ch SENT</text><text transform="translate(1045.56 592.71)" font-size="14" font-family="ArialMT, Arial">12x LIN</text><text transform="translate(1046.73 619.28)" font-size="14" font-family="ArialMT, Arial">3x I3C</text><text transform="translate(1087.19 614.61) scale(0.58)" font-size="14" font-family="ArialMT, Arial">®</text><text transform="translate(1008.49 645.85)" font-size="14" font-family="ArialMT, Arial">2x PSI5, 2x PSI5_S</text><rect x="595.19" y="559.08" width="159.36" height="25.81" fill="#eeb9ca"/><text transform="translate(625.83 577.46)" font-size="14" font-family="ArialMT, Arial">Secure Memory</text><rect x="987.52" y="21.79" width="186.48" height="198.29" fill="#96ceed"/><path d="M1055.55,37.44h3.7a7.19,7.19,0,0,1,1.91.19,3.38,3.38,0,0,1,1.51.92,4.33,4.33,0,0,1,.95,1.63,7.36,7.36,0,0,1,.33,2.37,6.76,6.76,0,0,1-.3,2.13,4.46,4.46,0,0,1-1.08,1.77,3.53,3.53,0,0,1-1.42.8,6.17,6.17,0,0,1-1.79.21h-3.81Zm2,1.69v6.64h1.52a5.84,5.84,0,0,0,1.22-.09,1.94,1.94,0,0,0,.82-.42,2.25,2.25,0,0,0,.53-1,6.81,6.81,0,0,0,.2-1.83,6.29,6.29,0,0,0-.2-1.79,2.31,2.31,0,0,0-.58-1,1.91,1.91,0,0,0-.93-.47,9.56,9.56,0,0,0-1.67-.1Z"/><path d="M1065.16,44.2l2-.19a2.36,2.36,0,0,0,.73,1.45,2.17,2.17,0,0,0,1.46.47,2.28,2.28,0,0,0,1.47-.41,1.22,1.22,0,0,0,.5-1,.92.92,0,0,0-.21-.61,1.69,1.69,0,0,0-.73-.43c-.23-.08-.77-.23-1.62-.44a5.57,5.57,0,0,1-2.28-1,2.62,2.62,0,0,1-.92-2,2.57,2.57,0,0,1,.43-1.43,2.74,2.74,0,0,1,1.25-1,4.94,4.94,0,0,1,2-.35,4.21,4.21,0,0,1,2.84.83,2.91,2.91,0,0,1,1,2.2l-2,.09a1.73,1.73,0,0,0-.55-1.11,2.1,2.1,0,0,0-1.28-.34,2.29,2.29,0,0,0-1.39.37.73.73,0,0,0-.32.62.79.79,0,0,0,.3.61,5.67,5.67,0,0,0,1.86.67,9.56,9.56,0,0,1,2.19.72,2.78,2.78,0,0,1,1.1,1,2.93,2.93,0,0,1,.4,1.59,3,3,0,0,1-.47,1.62,2.83,2.83,0,0,1-1.36,1.11,5.54,5.54,0,0,1-2.18.37,4.34,4.34,0,0,1-2.92-.88A3.81,3.81,0,0,1,1065.16,44.2Z"/><path d="M1075,47.46v-10h3.24a11.83,11.83,0,0,1,2.41.15,2.66,2.66,0,0,1,1.44,1,3.1,3.1,0,0,1,.58,2,3.29,3.29,0,0,1-.33,1.55,2.86,2.86,0,0,1-.85,1,3.07,3.07,0,0,1-1,.48,12.21,12.21,0,0,1-2.1.14H1077v3.78Zm2-8.33V42h1.11a5,5,0,0,0,1.6-.16,1.29,1.29,0,0,0,.63-.49,1.35,1.35,0,0,0,.23-.78,1.3,1.3,0,0,0-.32-.9,1.42,1.42,0,0,0-.82-.45,10.36,10.36,0,0,0-1.45-.07Z"/><path d="M1083.31,47.63l2.48-10.36h1.44l-2.51,10.36Z"/><path d="M1088.21,47.46v-10h3l1.81,6.84,1.8-6.84h3v10H1096V39.57l-2,7.89h-2l-2-7.89v7.89Z"/><path d="M1100,47.46V37.52h2v8.25h5v1.69Z"/><path d="M1047.76,65.46v-10H1051a11.71,11.71,0,0,1,2.4.15,2.65,2.65,0,0,1,1.45,1,3.63,3.63,0,0,1,.24,3.5,2.67,2.67,0,0,1-.85,1,2.91,2.91,0,0,1-1,.48,12.13,12.13,0,0,1-2.1.14h-1.32v3.78Zm2-8.33V60h1.11a5,5,0,0,0,1.6-.16,1.31,1.31,0,0,0,.86-1.27,1.26,1.26,0,0,0-.32-.9,1.37,1.37,0,0,0-.81-.45,10.54,10.54,0,0,0-1.46-.07Z"/><path d="M1058.92,65.46H1057V58.2h1.79v1a3.09,3.09,0,0,1,.82-1,1.48,1.48,0,0,1,.83-.23,2.47,2.47,0,0,1,1.27.36l-.6,1.67a1.65,1.65,0,0,0-.9-.31,1,1,0,0,0-.68.22,1.54,1.54,0,0,0-.45.81,11.81,11.81,0,0,0-.16,2.43Z"/><path d="M1062.09,61.73a3.94,3.94,0,0,1,.47-1.85,3.22,3.22,0,0,1,1.34-1.37,3.89,3.89,0,0,1,1.93-.47,3.59,3.59,0,0,1,2.7,1.07,3.69,3.69,0,0,1,1,2.7,3.72,3.72,0,0,1-1.06,2.73,3.6,3.6,0,0,1-2.68,1.08,4.21,4.21,0,0,1-1.9-.45,3.09,3.09,0,0,1-1.38-1.32A4.46,4.46,0,0,1,1062.09,61.73Zm2,.1a2.44,2.44,0,0,0,.51,1.66,1.69,1.69,0,0,0,2.53,0,2.45,2.45,0,0,0,.51-1.67,2.39,2.39,0,0,0-.51-1.64,1.67,1.67,0,0,0-2.53,0A2.4,2.4,0,0,0,1064.06,61.83Z"/><path d="M1077.42,60.35l-1.9.34a1.41,1.41,0,0,0-.43-.86,1.33,1.33,0,0,0-.88-.28,1.41,1.41,0,0,0-1.14.49,2.52,2.52,0,0,0-.43,1.66,3,3,0,0,0,.43,1.83,1.44,1.44,0,0,0,1.17.53,1.27,1.27,0,0,0,.89-.31,1.88,1.88,0,0,0,.49-1.07l1.89.32a3.28,3.28,0,0,1-1.13,2,3.48,3.48,0,0,1-2.23.66,3.32,3.32,0,0,1-2.54-1,4.57,4.57,0,0,1,0-5.58,3.37,3.37,0,0,1,2.57-1,3.5,3.5,0,0,1,2.11.57A3.19,3.19,0,0,1,1077.42,60.35Z"/><path d="M1083.08,63.15l1.91.32a3.09,3.09,0,0,1-1.17,1.6,3.38,3.38,0,0,1-2,.55,3.26,3.26,0,0,1-2.8-1.23,4.15,4.15,0,0,1-.72-2.5,4,4,0,0,1,.94-2.83,3.12,3.12,0,0,1,2.39-1,3.22,3.22,0,0,1,2.56,1.07,4.72,4.72,0,0,1,.89,3.27h-4.81a1.94,1.94,0,0,0,.46,1.33,1.46,1.46,0,0,0,1.11.48,1.14,1.14,0,0,0,.76-.25A1.48,1.48,0,0,0,1083.08,63.15Zm.11-1.94a1.85,1.85,0,0,0-.44-1.27,1.3,1.3,0,0,0-1-.43,1.34,1.34,0,0,0-1,.45,1.8,1.8,0,0,0-.41,1.25Z"/><path d="M1086,63.39l1.93-.29a1.43,1.43,0,0,0,.5.85,1.7,1.7,0,0,0,1,.29,1.83,1.83,0,0,0,1.12-.28.58.58,0,0,0,.25-.51.5.5,0,0,0-.13-.36,1.48,1.48,0,0,0-.64-.25,10.67,10.67,0,0,1-3-.94,1.86,1.86,0,0,1-.86-1.63,2,2,0,0,1,.74-1.59,3.48,3.48,0,0,1,2.31-.64,4.09,4.09,0,0,1,2.22.48,2.54,2.54,0,0,1,1,1.44l-1.82.33a1.08,1.08,0,0,0-.44-.65,1.58,1.58,0,0,0-.92-.22,2.11,2.11,0,0,0-1.09.21.47.47,0,0,0-.22.39.45.45,0,0,0,.19.35,7.07,7.07,0,0,0,1.8.54,5.39,5.39,0,0,1,2.14.85,1.78,1.78,0,0,1,.6,1.43,2.21,2.21,0,0,1-.83,1.72,3.7,3.7,0,0,1-2.47.71,4.07,4.07,0,0,1-2.35-.6A2.79,2.79,0,0,1,1086,63.39Z"/><path d="M1093.77,63.39l1.93-.29a1.42,1.42,0,0,0,.49.85,1.76,1.76,0,0,0,1.06.29,1.85,1.85,0,0,0,1.12-.28.58.58,0,0,0,.25-.51.51.51,0,0,0-.14-.36,1.42,1.42,0,0,0-.64-.25,10.56,10.56,0,0,1-2.94-.94,1.87,1.87,0,0,1-.87-1.63,2,2,0,0,1,.75-1.59,3.48,3.48,0,0,1,2.31-.64,4,4,0,0,1,2.21.48,2.45,2.45,0,0,1,1,1.44l-1.81.33a1.12,1.12,0,0,0-.44-.65,1.62,1.62,0,0,0-.93-.22,2.09,2.09,0,0,0-1.08.21.45.45,0,0,0-.22.39.42.42,0,0,0,.19.35,6.93,6.93,0,0,0,1.79.54,5.45,5.45,0,0,1,2.15.85,1.78,1.78,0,0,1,.6,1.43,2.19,2.19,0,0,1-.84,1.72,3.65,3.65,0,0,1-2.46.71,4.07,4.07,0,0,1-2.35-.6A2.75,2.75,0,0,1,1093.77,63.39Z"/><path d="M1101.79,61.73a3.83,3.83,0,0,1,.47-1.85,3.2,3.2,0,0,1,1.33-1.37,3.92,3.92,0,0,1,1.94-.47,3.62,3.62,0,0,1,2.7,1.07,3.69,3.69,0,0,1,1,2.7,3.76,3.76,0,0,1-1.06,2.73,3.62,3.62,0,0,1-2.68,1.08,4.18,4.18,0,0,1-1.9-.45,3,3,0,0,1-1.38-1.32A4.34,4.34,0,0,1,1101.79,61.73Zm2,.1a2.44,2.44,0,0,0,.52,1.66,1.68,1.68,0,0,0,2.52,0,2.45,2.45,0,0,0,.51-1.67,2.39,2.39,0,0,0-.51-1.64,1.66,1.66,0,0,0-2.52,0A2.4,2.4,0,0,0,1103.75,61.83Z"/><path d="M1112.62,65.46h-1.92V58.2h1.78v1a3.09,3.09,0,0,1,.83-1,1.46,1.46,0,0,1,.83-.23,2.41,2.41,0,0,1,1.26.36l-.59,1.67a1.68,1.68,0,0,0-.9-.31,1.08,1.08,0,0,0-.69.22,1.61,1.61,0,0,0-.44.81,11.11,11.11,0,0,0-.16,2.43Z"/><rect x="997.83" y="83.93" width="164.11" height="110.54" fill="#e5eaec"/><rect x="1005.13" y="91.92" width="149.29" height="27.61" fill="#96ceed"/><text transform="translate(1031.55 110.83)" font-size="14" font-family="ArialMT, Arial">FP Vector DSP</text><rect x="1005.13" y="125.5" width="149.29" height="27.61" fill="#96ceed"/><text transform="translate(1033.87 144.41)" font-size="14" font-family="ArialMT, Arial">32 KB I Cache</text><rect x="1005.13" y="159.52" width="149.29" height="27.61" fill="#96ceed"/><text transform="translate(1038.94 178.43)" font-size="14" font-family="ArialMT, Arial">TCM 256 KB</text></g><g id="_3-title-4-HR" data-name="3-title-4-HR"><text transform="translate(839.04 590.66)" font-size="14" font-family="ArialMT, Arial">10x SPI, 1x MSC</text><text transform="translate(857.72 617.26)" font-size="14" font-family="ArialMT, Arial">2x CAN XL</text><rect x="40.32" y="136.73" width="71.91" height="35.4" fill="#c4d12e"/><rect x="118.83" y="136.73" width="70.79" height="35.4" fill="#c4d12e"/><text transform="translate(52.6 150.71)" font-size="14" font-family="ArialMT, Arial">Neon™<tspan x="6.23" y="18">SIMD</tspan></text><text transform="translate(139.94 158.41)" font-size="14" font-family="ArialMT, Arial">FPU</text><rect x="226.74" y="136.73" width="71.91" height="35.4" fill="#c4d12e"/><rect x="305.25" y="136.73" width="70.79" height="35.4" fill="#c4d12e"/><text transform="translate(246.02 150.71)" font-size="14" font-family="ArialMT, Arial">Neon<tspan x="-0.77" y="18">SIMD</tspan></text><text transform="translate(326.36 158.41)" font-size="14" font-family="ArialMT, Arial">FPU</text><rect x="426.55" y="136.73" width="71.91" height="35.4" fill="#c4d12e"/><rect x="505.07" y="136.73" width="70.79" height="35.4" fill="#c4d12e"/><text transform="translate(445.83 150.71)" font-size="14" font-family="ArialMT, Arial">Neon<tspan x="-0.77" y="18">SIMD</tspan></text><text transform="translate(526.17 158.41)" font-size="14" font-family="ArialMT, Arial">FPU</text><rect x="612.36" y="136.73" width="71.91" height="35.4" fill="#c4d12e"/><rect x="690.87" y="136.73" width="70.79" height="35.4" fill="#c4d12e"/><text transform="translate(631.63 150.71)" font-size="14" font-family="ArialMT, Arial">Neon<tspan x="-0.77" y="18">SIMD</tspan></text><text transform="translate(711.97 158.41)" font-size="14" font-family="ArialMT, Arial">FPU</text></g></svg>